Coordinates
version=1
nRows=10
nColumns=40
inDegrees=yes

Units are S.I. units (second, meters, Newtons, ...)
Angles are in degrees.

endheader
time	pelvis_tilt	pelvis_list	pelvis_rotation	pelvis_tx	pelvis_ty	pelvis_tz	hip_flexion_r	hip_adduction_r	hip_rotation_r	knee_angle_r	knee_angle_r_beta	ankle_angle_r	subtalar_angle_r	mtp_angle_r	hip_flexion_l	hip_adduction_l	hip_rotation_l	knee_angle_l	knee_angle_l_beta	ankle_angle_l	subtalar_angle_l	mtp_angle_l	lumbar_extension	lumbar_bending	lumbar_rotation	arm_flex_r	arm_add_r	arm_rot_r	elbow_flex_r	pro_sup_r	wrist_flex_r	wrist_dev_r	arm_flex_l	arm_add_l	arm_rot_l	elbow_flex_l	pro_sup_l	wrist_flex_l	wrist_dev_l
      0.00000000	     -3.60840247	      1.85363803	      3.39611512	     -0.79581040	      0.94932080	      1.02972341	     27.30840014	    -12.06168847	    -22.61093424	    -11.98899414	     -0.20924742	     -1.19751713	      8.94603352	     -2.02787446	     -2.80911726	     -3.97705574	     10.46348529	    -11.79245584	     -0.20581718	      8.51242171	      0.14939123	    -14.68580614	     -3.95422080	      0.65610097	     -6.75705333	      2.43547802	    -11.61073040	    -24.41391913	     18.62404630	     89.95437384	      0.00000000	      0.00000000	     15.41013514	     12.19780674	     -8.29517078	     39.07068962	     89.95437384	      0.00000000	      0.00000000
      0.01000000	     -3.64663074	      1.70280037	      3.59017245	     -0.78757553	      0.94809758	      1.03119552	     27.43807823	    -11.73907294	    -22.69483669	    -11.20992402	     -0.19565008	     -1.40768344	      9.63427175	     -2.05183462	     -3.29770932	     -3.67105071	     10.29350878	    -11.84411902	     -0.20671887	      8.84195117	      0.10181932	    -14.76654241	     -3.87897722	      0.84915573	     -6.87367478	      2.31356463	    -11.53996741	    -24.70927305	     18.45306110	     89.95437384	      0.00000000	      0.00000000	     15.25299864	     12.18566376	     -8.24294967	     39.59304132	     89.95437384	      0.00000000	      0.00000000
      0.02000000	     -3.79364415	      1.69422803	      3.76575566	     -0.77931221	      0.94661287	      1.03274148	     27.86302180	    -11.63397730	    -22.80831468	    -11.08558347	     -0.19347993	     -1.34240898	      9.69725786	     -2.05693617	     -3.67413337	     -3.50363339	     10.33243652	    -11.89509849	     -0.20760863	      9.11974762	      0.00678980	    -14.74047700	     -3.67887445	      0.88111445	     -6.96790096	      2.11825126	    -11.43516135	    -24.78802696	     18.38270207	     89.95437384	      0.00000000	      0.00000000	     15.07337793	     12.17454121	     -8.24157550	     39.94145296	     89.95437384	      0.00000000	      0.00000000
      0.03000000	     -3.66045332	      1.52048755	      4.08258050	     -0.77056972	      0.94558301	      1.03428104	     27.88532271	    -11.46274299	    -23.21513228	    -11.28613256	     -0.19698017	     -1.28233981	      9.91139014	     -2.11722451	     -4.28565921	     -3.06817646	     10.39015233	    -12.12610416	     -0.21164044	      9.41282608	     -0.39949595	    -14.84284996	     -3.76980169	      1.10764701	     -7.20141058	      1.98953610	    -11.33641351	    -25.23558165	     18.26186420	     89.95437384	      0.00000000	      0.00000000	     14.83178744	     12.13761085	     -8.10674918	     40.38435540	     89.95437384	      0.00000000	      0.00000000
      0.04000000	     -3.73722321	      1.46153987	      4.25628374	     -0.76186007	      0.94412773	      1.03610217	     28.23424897	    -11.34545019	    -23.11242194	    -11.81051238	     -0.20613233	     -1.40885608	      9.54825944	     -2.08861467	     -4.74183207	     -2.79972116	     10.44836354	    -12.20459954	     -0.21301045	      9.72343724	     -0.50674329	    -14.75270178	     -3.61013959	      1.16574202	     -7.29377306	      1.76638864	    -11.23933448	    -25.26986471	     18.22782605	     89.95437384	      0.00000000	      0.00000000	     14.54775909	     12.14678796	     -8.13522860	     40.64631230	     89.95437384	      0.00000000	      0.00000000
      0.05000000	     -3.60474185	      1.35033030	      4.40845222	     -0.75286147	      0.94296942	      1.03819965	     28.42286300	    -11.18214775	    -23.10572151	    -12.80562351	     -0.22350029	     -1.42542038	      8.72581290	     -2.08400701	     -5.42686960	     -2.42058264	     10.46378180	    -12.35350863	     -0.21560940	     10.00810678	     -0.82406530	    -14.69963395	     -3.67930863	      1.29653309	     -7.35927582	      1.64378836	    -11.12759737	    -25.53577423	     18.09391412	     89.95437384	      0.00000000	      0.00000000	     14.21266406	     12.14699306	     -8.07175411	     40.94514527	     89.95437384	      0.00000000	      0.00000000
      0.06000000	     -3.56038491	      1.26786570	      4.63334113	     -0.74367142	      0.94166123	      1.04023213	     28.52390447	    -11.04993593	    -22.85434984	    -13.65784442	     -0.23837435	     -1.48687693	      8.02358849	     -2.05006490	     -5.98790831	     -2.05462504	     10.56124923	    -12.55803769	     -0.21917911	     10.16960681	     -0.93447739	    -14.57992313	     -3.60965096	      1.37555539	     -7.51127868	      1.42566665	    -11.02209578	    -25.52218560	     18.04995410	     89.95437384	      0.00000000	      0.00000000	     13.89396911	     12.14677122	     -8.10448424	     40.97444410	     89.95437384	      0.00000000	      0.00000000
      0.07000000	     -3.07164295	      0.92926744	      4.74159375	     -0.73396538	      0.94107556	      1.04301443	     27.98359105	    -10.38894926	    -22.42534393	    -14.39461853	     -0.25123349	     -1.46487914	      5.86007697	     -1.81943326	     -7.04316367	     -1.24008775	     11.26174975	    -12.72309355	     -0.22205987	      9.99905527	     -2.18908687	    -15.11175861	     -4.05669225	      1.74049555	     -7.42613138	      1.41694730	    -10.79347446	    -26.81133820	     17.76950781	     89.95437384	      0.00000000	      0.00000000	     13.57588738	     12.15707752	     -8.20452044	     41.09380983	     89.95437384	      0.00000000	      0.00000000
      0.08000000	     -2.93598879	      0.80458298	      4.92970913	     -0.72428704	      0.93990861	      1.04540146	     27.88742052	    -10.14594201	    -22.30148919	    -15.47758719	     -0.27013486	     -1.26289345	      4.75549773	     -1.73510680	     -7.67635907	     -0.77200295	     11.37934893	    -13.02771326	     -0.22737649	     10.15620282	     -2.41480741	    -15.09259806	     -4.05027220	      1.85979746	     -7.51519739	      1.17662064	    -10.71108347	    -26.66133396	     17.68247798	     89.95437384	      0.00000000	      0.00000000	     13.15411109	     12.11273959	     -8.13205514	     40.99873683	     89.95437384	      0.00000000	      0.00000000
      0.09000000	     -2.84611179	      0.69435015	      5.12842727	     -0.71448499	      0.93876346	      1.04803787	     27.68942697	     -9.87484272	    -22.18818312	    -16.38515866	     -0.28597497	     -1.04417015	      3.88947081	     -1.69010107	     -8.28153397	     -0.30623962	     11.50813612	    -13.26277011	     -0.23147901	     10.30290611	     -2.49727365	    -15.02065676	     -3.97971778	      1.92559184	     -7.63371623	      0.97735510	    -10.58812427	    -26.64934769	     17.55395821	     89.95437384	      0.00000000	      0.00000000	     12.69612212	     12.12730032	     -8.09421583	     40.79160974	     89.95437384	      0.00000000	      0.00000000
